<svg width="35" height="40" viewBox="0 0 35 40" fill="none" xmlns="http://www.w3.org/2000/svg">
<path d="M34.154 32.7441L21.4135 20L34.1541 7.25575C34.3007 7.10909 34.3831 6.91018 34.3831 6.70278C34.3831 6.49537 34.3007 6.29646 34.1541 6.1498C31.4156 3.41053 27.9265 1.54507 24.128 0.789313C20.3296 0.0335559 16.3924 0.421444 12.8143 1.90393C9.23626 3.38641 6.17803 5.89691 4.02636 9.11796C1.87469 12.339 0.726218 16.1259 0.726168 19.9999C0.726124 23.8739 1.87454 27.6609 4.02618 30.882C6.17783 34.1031 9.23607 36.6136 12.8142 38.0961C16.3922 39.5786 20.3295 39.9665 24.1279 39.2107C27.9264 38.4549 31.4155 36.5894 34.154 33.85C34.3007 33.7034 34.383 33.5045 34.383 33.2971C34.383 33.0897 34.3007 32.8907 34.154 32.7441ZM25.8291 26.6287L24.518 26.6288C24.3107 26.6288 24.1118 26.7113 23.9652 26.858C23.8186 27.0047 23.7362 27.2036 23.7363 27.4111C23.7363 27.6185 23.8187 27.8174 23.9654 27.9641C24.112 28.1107 24.3109 28.1931 24.5183 28.193L26.4594 28.193C26.5802 28.193 26.6993 28.165 26.8074 28.111C26.9155 28.0571 27.0096 27.9788 27.0823 27.8823L30.0209 30.8217C29.7833 30.91 29.5196 30.9838 29.2484 31.0596C28.7831 31.1733 28.3305 31.3339 27.8975 31.5389C27.455 31.0341 26.8699 30.6756 26.2193 30.5106C25.5688 30.3456 24.8835 30.3819 24.2541 30.6148C23.6246 30.8477 23.0806 31.2661 22.694 31.8149C22.3074 32.3636 22.0963 33.0167 22.0887 33.688C22.0102 33.6913 21.9315 33.6966 21.8523 33.7055C21.2552 33.7724 20.7071 34.0042 20.1774 34.2281L20.0063 34.3002C19.5192 34.5041 19.0495 34.6834 18.6582 34.6394C18.2304 34.5915 17.7656 34.2574 17.2733 33.9039C16.8053 33.5675 16.3214 33.2196 15.7516 33.0206C15.1933 32.8255 14.606 32.7979 14.0376 32.7706C13.4254 32.7415 12.8474 32.7137 12.4704 32.4768C12.1176 32.2541 11.8473 31.7575 11.561 31.2311C11.2821 30.7182 10.9937 30.1879 10.5579 29.752C10.1222 29.3161 9.59203 29.0276 9.07922 28.7487C8.55307 28.4624 8.05636 28.1919 7.83392 27.839C7.59669 27.4621 7.56953 26.8833 7.54009 26.2712C7.51321 25.7029 7.48529 25.1153 7.29035 24.5568C7.09141 23.9869 6.74369 23.5028 6.4073 23.0347C6.05349 22.5425 5.71959 22.0775 5.67177 21.6492C5.6281 21.2582 5.80735 20.7885 6.01113 20.3013L6.08383 20.1289C6.30772 19.599 6.53928 19.0512 6.60596 18.4542C6.67237 17.861 6.5681 17.2781 6.46728 16.7145C6.35989 16.1139 6.25845 15.5467 6.40301 15.1324C6.54315 14.7308 6.97076 14.3535 7.42338 13.9541C7.85721 13.5713 8.30575 13.1756 8.62949 12.6613C8.94191 12.1651 9.09905 11.6014 9.25114 11.0564C9.41664 10.4633 9.57288 9.90305 9.89345 9.58239C10.214 9.26174 10.7741 9.10545 11.3671 8.9399C11.9119 8.78777 12.4754 8.63058 12.9715 8.31808C13.4857 7.99425 13.8816 7.54592 14.264 7.11177C14.6633 6.65881 15.0405 6.23123 15.442 6.09098C15.8565 5.94624 16.4236 6.04778 17.0242 6.15526C17.5872 6.25569 18.1701 6.36034 18.7632 6.29399C19.3604 6.22708 19.9084 5.99531 20.4382 5.77136L20.6092 5.69933C21.0964 5.49535 21.5663 5.31571 21.9573 5.36008C22.3851 5.40798 22.8499 5.74212 23.3422 6.09561C23.8102 6.43202 24.2941 6.77991 24.8639 6.97892C25.4222 7.17398 26.0095 7.20163 26.5779 7.22886C26.8848 7.23741 27.1909 7.26291 27.495 7.30524C26.7382 8.64171 26.7705 10.3324 27.6019 11.5978L19.755 19.447C19.6084 19.5936 19.526 19.7925 19.526 20C19.526 20.2074 19.6084 20.4063 19.755 20.5529L25.8291 26.6287ZM26.351 32.8879C25.9517 33.3408 25.5745 33.7684 25.1729 33.9087C24.7743 34.0479 24.2346 33.9593 23.6597 33.8567C23.6316 33.4956 23.7162 33.1347 23.902 32.8238C24.0877 32.5129 24.3654 32.2674 24.6967 32.1212C25.028 31.9749 25.3965 31.9352 25.7513 32.0075C26.1061 32.0798 26.4297 32.2606 26.6774 32.5248C26.5664 32.6447 26.4581 32.7665 26.351 32.8879ZM28.7452 10.4542C28.5849 10.1081 28.5033 9.73084 28.5061 9.34942C28.5089 8.968 28.5961 8.59194 28.7616 8.24827C28.8602 8.4123 28.9561 8.58842 29.0541 8.76876C29.212 9.05928 29.3741 9.35477 29.5631 9.6361L28.7452 10.4542ZM20.3078 38.0229C17.3779 38.0229 14.4921 37.3081 11.9007 35.9406C9.30924 34.573 7.09031 32.5939 5.43619 30.1749C3.78207 27.7558 2.74268 24.9698 2.40809 22.0582C2.07349 19.1465 2.4538 16.1972 3.51605 13.4659C4.5783 10.7345 6.29043 8.3034 8.50407 6.38336C10.7177 4.46332 13.3661 3.11224 16.2196 2.4472C19.0731 1.78216 22.0457 1.82324 24.8798 2.56687C27.7139 3.31051 30.3239 4.73426 32.4837 6.71473L30.6967 8.50222C30.6066 8.34947 30.5183 8.18717 30.4279 8.02114C30.0757 7.37326 29.6763 6.63939 28.978 6.19922C28.2532 5.74281 27.4024 5.70237 26.6519 5.66678C26.1743 5.6441 25.7232 5.62254 25.379 5.50234C25.0229 5.37798 24.6496 5.10965 24.2545 4.82563C23.6504 4.3912 22.9656 3.89898 22.1314 3.80553C21.3685 3.71982 20.6628 3.98158 20.0061 4.25655L19.8296 4.33079C19.3827 4.51977 18.9605 4.69824 18.5891 4.73992C18.222 4.78091 17.7739 4.70087 17.2996 4.61585C16.563 4.48403 15.7285 4.33494 14.9266 4.6146C14.1387 4.88971 13.5823 5.52072 13.0912 6.07722C12.7674 6.44447 12.4619 6.7909 12.1382 6.99475C11.8352 7.18552 11.4037 7.306 10.9467 7.43353C10.221 7.63606 9.3984 7.86568 8.78767 8.47658C8.17694 9.08748 7.94738 9.9103 7.74491 10.6362C7.61742 11.0933 7.49697 11.525 7.3059 11.8284C7.10212 12.1522 6.7555 12.458 6.38857 12.7816C5.83215 13.2727 5.20132 13.8292 4.92643 14.6174C4.6467 15.4191 4.79603 16.2539 4.92781 16.9905C5.01267 17.4651 5.09283 17.9133 5.05171 18.2808C5.01011 18.652 4.8319 19.0739 4.64318 19.5205L4.56834 19.6984C4.29338 20.3556 4.03217 21.0612 4.11758 21.8239C4.21101 22.6585 4.70316 23.3434 5.1374 23.9478C5.42127 24.3431 5.68953 24.7165 5.81391 25.0727C5.93401 25.4168 5.95536 25.8681 5.97831 26.346C6.01389 27.0969 6.05432 27.9479 6.51061 28.6729C6.95072 29.372 7.68459 29.771 8.33208 30.1233C8.76632 30.3595 9.17637 30.5826 9.45223 30.8586C9.72809 31.1345 9.95115 31.5447 10.1874 31.9791C10.451 32.4639 10.7409 32.9969 11.1627 33.4189C11.3061 33.5636 11.4654 33.6918 11.6374 33.8011C12.3622 34.2575 13.2129 34.2979 13.9635 34.3335C14.4411 34.3562 14.8922 34.3778 15.2364 34.498C15.5925 34.6223 15.9658 34.8907 16.3608 35.1747C16.965 35.6091 17.6497 36.1013 18.4839 36.1948C19.2468 36.2805 19.9526 36.0187 20.6093 35.7438L20.7858 35.6695C21.2326 35.4806 21.6548 35.3021 22.0263 35.2604C22.3935 35.2193 22.8415 35.2995 23.316 35.3844C24.0525 35.5163 24.887 35.6655 25.6888 35.3857C26.4767 35.1105 27.0331 34.4795 27.5241 33.9231C27.848 33.5559 28.1534 33.2094 28.4772 33.0056C28.7801 32.8148 29.2117 32.6943 29.669 32.5664C30.1661 32.4277 30.7085 32.2762 31.1971 31.9983L32.4837 33.2852C29.1674 36.3435 24.8184 38.0357 20.3078 38.0229Z" fill="#F44A25"/>
</svg>
