<svg width="108" height="21" viewBox="0 0 108 21" fill="none" xmlns="http://www.w3.org/2000/svg">
<path d="M5.84503 3.392C8.00503 3.392 9.67703 3.84 10.861 4.736C12.061 5.632 12.661 6.968 12.661 8.744C12.661 10.6 12.069 12 10.885 12.944C9.70103 13.872 8.11703 14.336 6.13303 14.336H4.23703V20H0.709031V3.392H5.84503ZM5.84503 11.744C6.86903 11.744 7.65303 11.512 8.19703 11.048C8.74103 10.584 9.01303 9.816 9.01303 8.744C9.01303 6.872 7.94103 5.936 5.79703 5.936H4.23703V11.744H5.84503ZM18.3185 7.28V20H14.9105V7.28H18.3185ZM16.5905 0.727999C17.1985 0.727999 17.6945 0.919999 18.0785 1.304C18.4785 1.672 18.6785 2.144 18.6785 2.72C18.6785 3.296 18.4785 3.776 18.0785 4.16C17.6945 4.528 17.1985 4.712 16.5905 4.712C15.9825 4.712 15.4865 4.528 15.1025 4.16C14.7185 3.776 14.5265 3.296 14.5265 2.72C14.5265 2.144 14.7185 1.672 15.1025 1.304C15.4865 0.919999 15.9825 0.727999 16.5905 0.727999ZM30.2759 7.28V9.704L24.2999 17.36H30.3959L30.0599 20H20.3879V17.552L26.3639 9.896H20.8919V7.28H30.2759ZM41.1743 7.28V9.704L35.1983 17.36H41.2943L40.9583 20H31.2863V17.552L37.2623 9.896H31.7903V7.28H41.1743ZM52.8492 16.472C52.8492 16.968 52.9212 17.336 53.0652 17.576C53.2092 17.8 53.4492 17.968 53.7852 18.08L53.0652 20.336C52.3132 20.272 51.6972 20.096 51.2172 19.808C50.7532 19.52 50.3932 19.072 50.1372 18.464C49.3052 19.744 48.0332 20.384 46.3212 20.384C45.0572 20.384 44.0492 20.024 43.2972 19.304C42.5612 18.568 42.1932 17.616 42.1932 16.448C42.1932 15.056 42.6972 13.992 43.7052 13.256C44.7132 12.52 46.1612 12.152 48.0492 12.152H49.5132V11.528C49.5132 10.744 49.3372 10.2 48.9852 9.896C48.6332 9.592 48.0492 9.44 47.2332 9.44C46.3372 9.44 45.2172 9.664 43.8732 10.112L43.1052 7.832C44.6892 7.208 46.2572 6.896 47.8092 6.896C49.5372 6.896 50.8092 7.272 51.6252 8.024C52.4412 8.76 52.8492 9.864 52.8492 11.336V16.472ZM47.2572 17.936C48.2172 17.936 48.9692 17.464 49.5132 16.52V14.096H48.3852C46.5452 14.096 45.6252 14.784 45.6252 16.16C45.6252 16.72 45.7612 17.16 46.0332 17.48C46.3212 17.784 46.7292 17.936 47.2572 17.936ZM67.2496 3.008C68.4496 3.008 69.4896 3.184 70.3696 3.536C71.2656 3.872 72.0896 4.392 72.8416 5.096L71.1616 7.04C70.5696 6.56 69.9776 6.208 69.3856 5.984C68.7936 5.76 68.1616 5.648 67.4896 5.648C66.7536 5.648 66.1616 5.808 65.7136 6.128C65.2816 6.432 65.0656 6.872 65.0656 7.448C65.0656 7.848 65.1536 8.176 65.3296 8.432C65.5216 8.688 65.8496 8.928 66.3136 9.152C66.7776 9.376 67.4736 9.632 68.4016 9.92C70.0496 10.448 71.2816 11.104 72.0976 11.888C72.9136 12.656 73.3216 13.76 73.3216 15.2C73.3216 16.224 73.0656 17.128 72.5536 17.912C72.0416 18.68 71.2976 19.288 70.3216 19.736C69.3456 20.168 68.2016 20.384 66.8896 20.384C65.5776 20.384 64.4096 20.176 63.3856 19.76C62.3616 19.344 61.4816 18.776 60.7456 18.056L62.5456 16.064C63.1856 16.608 63.8496 17.024 64.5376 17.312C65.2256 17.584 65.9776 17.72 66.7936 17.72C67.6576 17.72 68.3456 17.52 68.8576 17.12C69.3856 16.72 69.6496 16.16 69.6496 15.44C69.6496 14.992 69.5536 14.624 69.3616 14.336C69.1856 14.032 68.8736 13.76 68.4256 13.52C67.9776 13.28 67.3296 13.032 66.4816 12.776C64.6736 12.216 63.3776 11.544 62.5936 10.76C61.8256 9.976 61.4416 8.952 61.4416 7.688C61.4416 6.76 61.6896 5.944 62.1856 5.24C62.6816 4.52 63.3696 3.968 64.2496 3.584C65.1296 3.2 66.1296 3.008 67.2496 3.008ZM82.7879 6.896C83.8919 6.896 84.7559 7.24 85.3799 7.928C86.0199 8.6 86.3399 9.536 86.3399 10.736V20H82.9319V11.312C82.9319 10.624 82.8119 10.144 82.5719 9.872C82.3319 9.584 81.9879 9.44 81.5399 9.44C80.6439 9.44 79.8279 10.024 79.0919 11.192V20H75.6839V2.216L79.0919 1.856V8.72C79.6039 8.112 80.1559 7.656 80.7479 7.352C81.3559 7.048 82.0359 6.896 82.7879 6.896ZM92.9903 7.28V20H89.5823V7.28H92.9903ZM91.2623 0.727999C91.8703 0.727999 92.3663 0.919999 92.7503 1.304C93.1503 1.672 93.3503 2.144 93.3503 2.72C93.3503 3.296 93.1503 3.776 92.7503 4.16C92.3663 4.528 91.8703 4.712 91.2623 4.712C90.6543 4.712 90.1583 4.528 89.7743 4.16C89.3903 3.776 89.1983 3.296 89.1983 2.72C89.1983 2.144 89.3903 1.672 89.7743 1.304C90.1583 0.919999 90.6543 0.727999 91.2623 0.727999ZM107.372 2.216V20H104.372L104.18 18.44C103.284 19.736 102.068 20.384 100.532 20.384C98.9638 20.384 97.7638 19.784 96.9318 18.584C96.1158 17.368 95.7078 15.72 95.7078 13.64C95.7078 12.328 95.9158 11.168 96.3318 10.16C96.7638 9.136 97.3718 8.336 98.1558 7.76C98.9398 7.184 99.8438 6.896 100.868 6.896C102.052 6.896 103.084 7.32 103.964 8.168V1.832L107.372 2.216ZM101.54 17.84C102.036 17.84 102.476 17.72 102.86 17.48C103.244 17.224 103.612 16.832 103.964 16.304V10.616C103.628 10.216 103.284 9.92 102.932 9.728C102.596 9.52 102.204 9.416 101.756 9.416C100.972 9.416 100.356 9.76 99.9078 10.448C99.4758 11.136 99.2598 12.2 99.2598 13.64C99.2598 15.16 99.4518 16.24 99.8358 16.88C100.236 17.52 100.804 17.84 101.54 17.84Z" fill="black"/>
</svg>
