<svg width="18" height="13" viewBox="0 0 18 13" fill="none" xmlns="http://www.w3.org/2000/svg">
<path d="M17.7936 5.34242C17.8177 5.23702 17.8178 5.12753 17.7939 5.02209C17.7699 4.91665 17.7225 4.81796 17.6552 4.73334C17.5879 4.64872 17.5024 4.58036 17.405 4.53332C17.3076 4.48628 17.2009 4.46177 17.0928 4.46162H4.99679L4.77839 3.37202C4.63007 2.61145 4.25373 1.91405 3.6994 1.37258C3.14507 0.831116 2.43903 0.471241 1.67518 0.340821L1.03438 0.228021C0.939308 0.207525 0.841064 0.206505 0.745583 0.225022C0.650101 0.243539 0.55936 0.281209 0.478837 0.335759C0.398314 0.390309 0.329678 0.460608 0.277071 0.542414C0.224463 0.624219 0.188976 0.715835 0.172749 0.811733C0.156523 0.907631 0.159894 1.00582 0.18266 1.10038C0.205425 1.19494 0.247113 1.28391 0.305207 1.36191C0.363301 1.43992 0.436598 1.50534 0.520672 1.55424C0.604747 1.60314 0.697858 1.6345 0.794385 1.64642L1.43518 1.75922C1.91238 1.84081 2.35345 2.06565 2.69983 2.40388C3.0462 2.7421 3.28147 3.1777 3.37439 3.65282L4.64158 9.99362C4.80448 10.8086 5.24435 11.5421 5.88654 12.0697C6.52873 12.5973 7.33368 12.8864 8.16479 12.888H13.188C14.0027 12.8907 14.794 12.6157 15.4314 12.1083C16.0688 11.6009 16.5143 10.8914 16.6944 10.0968L17.7936 5.34242ZM15.2928 9.77282C15.1841 10.2498 14.9166 10.6758 14.5343 10.981C14.1519 11.2862 13.6772 11.4525 13.188 11.4528H8.16479C7.66575 11.4532 7.18197 11.2809 6.79564 10.965C6.40931 10.6491 6.14428 10.2092 6.04558 9.72002L5.28479 5.89922H16.1856L15.2928 9.77282Z" fill="#333333"/>
</svg>
